<svg id="Layer_1" data-name="Layer 1" xmlns="http://www.w3.org/2000/svg" viewBox="0 0 1026 1026"><defs><style>.cls-1{stroke:#fff;stroke-miterlimit:10;stroke-width:2px;}.cls-2{fill:#fff;fill-rule:evenodd;}</style></defs><title>github-black</title><circle class="cls-1" cx="513" cy="513" r="512"/><path class="cls-2" d="M512.58,0.76c-282.71,0-512,229.23-512,512C0.61,739,147.3,930.88,350.77,998.59c25.6,4.7,34.95-11.11,34.95-24.68,0-12.15-.44-44.35-0.69-87.08C242.6,917.77,212.55,818.2,212.55,818.2c-23.28-59.15-56.85-74.89-56.85-74.89-46.49-31.77,3.52-31.12,3.52-31.12,51.38,3.62,78.42,52.76,78.42,52.76,45.67,78.24,119.83,55.65,149,42.54,4.65-33.09,17.88-55.65,32.51-68.45-113.69-12.92-233.22-56.85-233.22-253,0-55.89,19.95-101.6,52.7-137.39-5.26-13-22.83-65,5-135.5,0,0,43-13.77,140.8,52.49,40.84-11.36,84.64-17,128.18-17.23,43.48,0.2,87.28,5.88,128.18,17.23,97.75-66.25,140.66-52.49,140.66-52.49,27.93,70.49,10.36,122.55,5.09,135.5C819.39,384.4,839.2,430.1,839.2,486c0,196.69-119.71,240-233.77,252.65,18.38,15.81,34.76,47.06,34.76,94.82,0,68.45-.63,123.67-0.63,140.46,0,13.69,9.22,29.62,35.21,24.62C878,930.7,1024.61,738.92,1024.61,512.79,1024.61,230,795.35.76,512.58,0.76Z" transform="translate(0.39 0.24)"/></svg>